<svg xmlns="http://www.w3.org/2000/svg" width="0" height="0" class="hidden">
  <symbol viewBox="0 0 24 24" id="arrow-left-s-line">
    <path fill="none" d="M0 0h24v24H0z"></path>
    <path d="M10.828 12l4.95 4.95-1.414 1.414L8 12l6.364-6.364 1.414 1.414z"></path>
  </symbol>
  <symbol viewBox="0 0 24 24" id="arrow-right-s-line">
    <path fill="none" d="M0 0h24v24H0z"></path>
    <path d="M13.172 12l-4.95-4.95 1.414-1.414L16 12l-6.364 6.364-1.414-1.414z"></path>
  </symbol>
  <symbol viewBox="0 0 24 24" id="arrow-down-s-line">
    <path fill="none" d="M0 0h24v24H0z"></path>
    <path d="M12 13.172l4.95-4.95 1.414 1.414L12 16 5.636 9.636 7.05 8.222z"></path>
  </symbol>
  <symbol viewBox="0 0 24 24" id="arrow-up-s-line">
    <path fill="none" d="M0 0h24v24H0z"></path>
    <path d="M12 10.828l-4.95 4.95-1.414-1.414L12 8l6.364 6.364-1.414 1.414z"></path>
  </symbol>
  <symbol viewBox="0 0 24 24" id="instagram-line">
    <path fill="none" d="M0 0h24v24H0z"></path>
    <path d="M12 9a3 3 0 100 6 3 3 0 000-6zm0-2a5 5 0 110 10 5 5 0 010-10zm6.5-.25a1.25 1.25 0 01-2.5 0 1.25 1.25 0 012.5 0zM12 4c-2.474 0-2.878.007-4.029.058-.784.037-1.31.142-1.798.332a2.886 2.886 0 00-1.08.703 2.89 2.89 0 00-.704 1.08c-.19.49-.295 1.015-.331 1.798C4.006 9.075 4 9.461 4 12c0 2.474.007 2.878.058 4.029.037.783.142 1.31.331 1.797.17.435.37.748.702 1.08.337.336.65.537 1.08.703.494.191 1.02.297 1.8.333C9.075 19.994 9.461 20 12 20c2.474 0 2.878-.007 4.029-.058.782-.037 1.309-.142 1.797-.331a2.92 2.92 0 001.08-.702c.337-.337.538-.65.704-1.08.19-.493.296-1.02.332-1.8.052-1.104.058-1.49.058-4.029 0-2.474-.007-2.878-.058-4.029-.037-.782-.142-1.31-.332-1.798a2.911 2.911 0 00-.703-1.08 2.884 2.884 0 00-1.08-.704c-.49-.19-1.016-.295-1.798-.331C14.925 4.006 14.539 4 12 4zm0-2c2.717 0 3.056.01 4.122.06 1.065.05 1.79.217 2.428.465.66.254 1.216.598 1.772 1.153a4.908 4.908 0 011.153 1.772c.247.637.415 1.363.465 2.428.047 1.066.06 1.405.06 4.122 0 2.717-.01 3.056-.06 4.122-.05 1.065-.218 1.79-.465 2.428a4.883 4.883 0 01-1.153 1.772 4.915 4.915 0 01-1.772 1.153c-.637.247-1.363.415-2.428.465-1.066.047-1.405.06-4.122.06-2.717 0-3.056-.01-4.122-.06-1.065-.05-1.79-.218-2.428-.465a4.89 4.89 0 01-1.772-1.153 4.904 4.904 0 01-1.153-1.772c-.248-.637-.415-1.363-.465-2.428C2.013 15.056 2 14.717 2 12c0-2.717.01-3.056.06-4.122.05-1.066.217-1.79.465-2.428a4.88 4.88 0 011.153-1.772A4.897 4.897 0 015.45 2.525c.638-.248 1.362-.415 2.428-.465C8.944 2.013 9.283 2 12 2z"></path>
  </symbol>
  <symbol viewBox="0 0 24 24" id="facebook-fill">
    <path fill="none" d="M0 0h24v24H0z"></path>
    <path d="M14 13.5h2.5l1-4H14v-2c0-1.03 0-2 2-2h1.5V2.14c-.326-.043-1.557-.14-2.857-.14C11.928 2 10 3.657 10 6.7v2.8H7v4h3V22h4v-8.5z"></path>
  </symbol>
  <symbol viewBox="0 0 24 24" id="facebook-box-line">
    <path fill="none" d="M0 0h24v24H0z"></path>
    <path d="M14 19h5V5H5v14h7v-5h-2v-2h2v-1.654c0-1.337.14-1.822.4-2.311A2.726 2.726 0 0113.536 6.9c.382-.205.857-.328 1.687-.381.329-.021.755.005 1.278.08v1.9H16c-.917 0-1.296.043-1.522.164a.727.727 0 00-.314.314c-.12.226-.164.45-.164 1.368V12h2.5l-.5 2h-2v5zM4 3h16a1 1 0 011 1v16a1 1 0 01-1 1H4a1 1 0 01-1-1V4a1 1 0 011-1z"></path>
  </symbol>
  <symbol viewBox="0 0 24 24" id="menu-line">
    <path fill="none" d="M0 0h24v24H0z"></path>
    <path d="M3 4h18v2H3V4zm0 7h18v2H3v-2zm0 7h18v2H3v-2z"></path>
  </symbol>
  <symbol viewBox="0 0 24 24" id="close-line">
    <path fill="none" d="M0 0h24v24H0z"></path>
    <path d="M12 10.586l4.95-4.95 1.414 1.414-4.95 4.95 4.95 4.95-1.414 1.414-4.95-4.95-4.95 4.95-1.414-1.414 4.95-4.95-4.95-4.95L7.05 5.636z"></path>
  </symbol>
</svg>
